<svg width="316" height="316" viewBox="0 0 316 316" fill="none" xmlns="http://www.w3.org/2000/svg">
<circle cx="158" cy="158" r="157.5" fill="#E9E9E9" stroke="black"/>
<path d="M221.698 174.434C234.732 174.434 245.29 184.992 245.29 198.027V207.007H245.225C244.782 217.175 241.993 229.909 230.587 240.311C218.126 251.69 196.606 259.12 160.565 259.12C124.511 259.12 103.004 251.69 90.5432 240.311C79.1379 229.909 76.3484 217.161 75.9053 207.007H75.8401V198.014C75.8401 184.992 86.3982 174.434 99.4328 174.434H221.698ZM114.944 63.6003C109.759 63.6003 104.785 65.6603 101.119 69.327C97.452 72.9937 95.3921 77.9668 95.3921 83.1523V135.291C95.3921 140.476 97.452 145.449 101.119 149.116C104.785 152.783 109.759 154.843 114.944 154.843H206.187C211.372 154.843 216.345 152.783 220.012 149.116C223.679 145.449 225.739 140.476 225.739 135.291V83.1523C225.739 77.9668 223.679 72.9937 220.012 69.327C216.345 65.6603 211.372 63.6003 206.187 63.6003H167.083V57.083C167.119 56.2173 166.976 55.3533 166.662 54.5459C166.347 53.7385 165.868 53.0052 165.256 52.3925C164.643 51.7798 163.91 51.3011 163.102 50.9866C162.295 50.6721 161.431 50.5288 160.565 50.5657C156.968 50.5657 154.048 53.5636 154.048 57.083V63.6003H114.944ZM121.461 109.222C121.461 105.765 122.835 102.449 125.279 100.005C127.724 97.5602 131.039 96.1869 134.496 96.1869C137.953 96.1869 141.268 97.5602 143.713 100.005C146.157 102.449 147.531 105.765 147.531 109.222C147.531 112.679 146.157 115.994 143.713 118.438C141.268 120.883 137.953 122.256 134.496 122.256C131.039 122.256 127.724 120.883 125.279 118.438C122.835 115.994 121.461 112.679 121.461 109.222ZM173.6 109.222C173.6 105.765 174.973 102.449 177.418 100.005C179.862 97.5602 183.178 96.1869 186.635 96.1869C190.092 96.1869 193.407 97.5602 195.851 100.005C198.296 102.449 199.669 105.765 199.669 109.222C199.669 112.679 198.296 115.994 195.851 118.438C193.407 120.883 190.092 122.256 186.635 122.256C183.178 122.256 179.862 120.883 177.418 118.438C174.973 115.994 173.6 112.679 173.6 109.222Z" fill="#2933A3"/>
</svg>
