<svg width="50" height="50" viewBox="0 0 50 50" fill="none" xmlns="http://www.w3.org/2000/svg">
<circle cx="25" cy="25" r="24.5" fill="#E9E9E9" stroke="black"/>
<path d="M41.125 25.5033H39.5C39.5 19.2146 34.4137 14.1283 28.125 14.1283H26.5V12.0646C26.9942 11.7793 27.4045 11.3689 27.6898 10.8746C27.975 10.3804 28.1251 9.8198 28.125 9.24917C28.1249 8.67853 27.9745 8.11799 27.689 7.62392C27.4034 7.12984 26.9929 6.71965 26.4986 6.43458C26.0042 6.14952 25.4436 5.99963 24.8729 6C24.3023 6.00037 23.7418 6.15097 23.2478 6.43667C22.7539 6.72237 22.3438 7.13308 22.059 7.62753C21.7741 8.12197 21.6244 8.6827 21.625 9.25333C21.625 10.4558 22.275 11.5121 23.25 12.0646V14.1283H21.625C15.3363 14.1283 10.25 19.2146 10.25 25.5033H8.625C7.73125 25.5033 7 26.2346 7 27.1283V32.0033C7 32.8971 7.73125 33.6283 8.625 33.6283H10.25V35.2533C10.25 36.1153 10.5924 36.9419 11.2019 37.5514C11.8114 38.1609 12.638 38.5033 13.5 38.5033H36.25C38.0538 38.5033 39.5 37.0571 39.5 35.2533V33.6283H41.125C42.0188 33.6283 42.75 32.8971 42.75 32.0033V27.1283C42.75 26.2346 42.0188 25.5033 41.125 25.5033ZM21.2837 29.5658C20.65 28.1358 19.2362 27.1283 17.5625 27.1283C15.8888 27.1283 14.475 28.1358 13.8413 29.5658C13.63 29.0621 13.5 28.5258 13.5 27.9408C13.5 26.8634 13.928 25.8301 14.6899 25.0682C15.4517 24.3063 16.4851 23.8783 17.5625 23.8783C18.6399 23.8783 19.6733 24.3063 20.4351 25.0682C21.197 25.8301 21.625 26.8634 21.625 27.9408C21.625 28.5258 21.495 29.0621 21.2837 29.5658ZM35.9088 29.5658C35.275 28.1358 33.8125 27.1283 32.1875 27.1283C30.5625 27.1283 29.1 28.1358 28.4663 29.5658C28.255 29.0621 28.125 28.5258 28.125 27.9408C28.125 26.8634 28.553 25.8301 29.3149 25.0682C30.0767 24.3063 31.1101 23.8783 32.1875 23.8783C33.2649 23.8783 34.2983 24.3063 35.0601 25.0682C35.822 25.8301 36.25 26.8634 36.25 27.9408C36.25 28.5258 36.12 29.0621 35.9088 29.5658Z" fill="#676700"/>
</svg>
