<svg xmlns="http://www.w3.org/2000/svg" version="1.0" width="512.000000pt" height="512.000000pt" viewBox="0 0 512.000000 512.000000" preserveAspectRatio="xMidYMid meet">

<g transform="translate(0.000000,512.000000) scale(0.100000,-0.100000)" fill="#000000" stroke="none">
<path d="M2595 5104 c-606 -82 -1122 -448 -1380 -979 -30 -60 -61 -132 -69 -158 -28 -84 -65 -286 -82 -449 -15 -137 -20 -158 -33 -152 -78 34 -131 46 -196 42 -273 -14 -495 -345 -560 -837 -28 -210 -16 -504 30 -707 61 -271 197 -510 339 -600 35 -22 47 -37 57 -71 18 -66 5 -129 -57 -285 -34 -86 -59 -164 -62 -195 -4 -48 -2 -55 26 -83 60 -60 156 -33 292 81 68 57 72 59 66 32 -10 -47 -96 -643 -96 -664 0 -12 13 -34 29 -50 l29 -29 1897 0 c2024 0 1941 -2 1959 45 11 30 6 74 -65 551 -45 307 -77 495 -90 528 -42 106 -129 193 -237 236 -26 11 -234 56 -462 101 -228 45 -420 87 -426 93 -7 6 -31 70 -54 141 -61 187 -76 199 -198 160 -42 -14 -80 -25 -84 -25 -5 0 -8 18 -8 40 0 43 -1 42 125 70 124 27 328 117 468 207 163 104 337 273 447 434 47 69 66 89 79 84 86 -34 205 -25 301 23 192 95 317 377 269 604 -28 129 -109 252 -209 314 -35 21 -62 46 -65 58 -3 12 -12 51 -20 87 -8 37 -31 114 -51 170 -200 580 -685 1015 -1289 1154 -185 43 -434 55 -620 29z m498 -179 c618 -110 1122 -569 1283 -1170 13 -49 24 -95 24 -102 0 -32 -323 112 -478 213 -188 122 -289 215 -414 381 -77 101 -152 86 -193 -39 -76 -230 -340 -506 -680 -710 -140 -84 -207 -117 -326 -161 -161 -60 -306 -94 -485 -112 l-62 -6 19 108 c26 145 81 345 129 471 22 57 40 116 40 132 0 56 -70 96 -119 69 -73 -40 -190 -426 -245 -809 -64 -440 -60 -1055 9 -1485 35 -218 98 -479 140 -579 9 -21 14 -41 11 -43 -9 -10 -115 106 -165 180 -192 285 -324 696 -371 1157 -13 132 -14 583 0 789 18 283 44 493 76 626 51 208 195 446 384 636 131 131 257 222 425 305 185 92 351 142 549 164 99 12 344 3 449 -15z m396 -925 c23 -28 79 -81 124 -119 243 -204 576 -370 892 -442 105 -24 112 -28 145 -95 68 -137 35 -336 -75 -448 -82 -84 -178 -103 -272 -53 -96 50 -120 39 -195 -87 -65 -112 -149 -216 -243 -304 -285 -266 -643 -402 -1060 -402 -376 0 -752 108 -1007 290 l-88 63 0 156 c0 132 23 479 32 486 2 1 57 7 123 14 300 29 580 125 854 290 315 191 547 409 679 639 20 34 39 62 43 62 3 0 25 -23 48 -50z m-2562 -775 c20 -9 52 -27 70 -41 l33 -25 0 -130 0 -129 -27 0 c-47 -1 -115 -39 -164 -90 -111 -119 -191 -353 -228 -675 -14 -114 -14 -383 -1 -499 6 -49 9 -91 6 -93 -8 -9 -96 188 -125 282 -47 155 -61 256 -61 453 0 267 37 471 119 663 100 232 244 340 378 284z m97 -547 c3 -29 8 -109 10 -178 11 -239 63 -516 146 -774 l49 -149 -33 -91 c-67 -184 -198 -412 -313 -544 -31 -35 -57 -61 -59 -59 -2 1 8 37 23 78 41 116 42 193 4 324 -52 181 -72 311 -78 516 -10 323 35 604 129 796 30 62 87 133 106 133 6 0 13 -24 16 -52z m734 -516 c92 -63 291 -153 432 -195 90 -28 226 -57 260 -57 17 0 20 -6 20 -40 0 -22 -3 -40 -7 -40 -5 0 -43 11 -85 25 -123 39 -137 28 -199 -167 -22 -71 -41 -128 -43 -128 -1 0 -73 -16 -161 -35 -87 -19 -162 -32 -166 -28 -28 32 -109 683 -85 683 5 0 20 -8 34 -18z m1230 -365 l3 -87 -171 0 -170 0 0 85 0 84 158 3 c86 2 162 3 167 2 6 0 11 -39 13 -87z m-587 -129 c22 -6 39 -16 39 -22 0 -5 -30 -86 -66 -180 -37 -93 -67 -181 -66 -195 0 -15 10 -50 21 -79 12 -29 21 -55 21 -58 0 -5 -41 27 -113 86 -13 11 105 460 121 460 3 0 22 -5 43 -12z m906 -85 c36 -111 95 -341 91 -353 -2 -4 -29 -29 -62 -55 -61 -50 -66 -46 -31 25 30 61 28 74 -45 259 -38 99 -70 184 -70 189 0 8 49 28 75 31 6 1 25 -43 42 -96z m-657 -50 c0 -5 -21 -39 -45 -77 -25 -38 -45 -79 -45 -92 0 -12 38 -80 85 -151 l85 -128 0 -457 0 -458 -840 0 -840 0 5 23 c3 12 32 206 65 431 33 225 63 420 67 434 3 14 25 59 49 101 24 42 53 100 65 129 12 28 25 52 30 52 5 0 22 -26 38 -59 72 -141 255 -341 354 -387 140 -64 267 -44 267 42 0 17 -18 72 -41 121 -52 110 -101 255 -92 264 10 8 222 53 228 48 2 -2 -6 -43 -17 -90 -12 -47 -18 -96 -15 -110 4 -17 74 -79 218 -194 252 -202 256 -205 292 -205 39 0 77 40 77 82 0 18 -36 120 -79 227 l-79 193 44 115 c59 152 59 153 94 153 17 0 30 -3 30 -7z m449 -127 l51 -133 -80 -198 c-44 -109 -80 -211 -80 -227 0 -58 69 -95 123 -66 30 16 417 325 445 355 26 29 28 61 6 149 -9 36 -14 67 -11 70 8 8 766 -145 798 -161 41 -22 92 -76 113 -118 10 -23 40 -191 76 -439 33 -222 62 -418 65 -435 l6 -33 -856 0 -855 0 0 455 0 455 85 128 c60 89 85 136 85 157 0 19 -16 55 -45 97 -25 37 -45 70 -45 73 0 3 15 5 34 5 l33 0 52 -134z m-229 -22 c11 -19 8 -28 -20 -70 l-33 -47 -23 28 c-49 61 -49 69 -14 121 l33 47 23 -28 c12 -16 28 -38 34 -51z"/>
<path d="M3185 655 c-24 -24 -25 -27 -25 -185 0 -158 1 -161 25 -185 l24 -25 546 0 546 0 24 25 c24 24 25 27 25 185 0 158 -1 161 -25 185 l-24 25 -546 0 -546 0 -24 -25z m995 -185 l0 -40 -425 0 -425 0 0 40 0 40 425 0 425 0 0 -40z"/>
</g>
</svg>