<svg width="50" height="50" viewBox="0 0 50 50" fill="none" xmlns="http://www.w3.org/2000/svg">
<circle cx="25" cy="25" r="24.5" fill="#E9E9E9" stroke="black"/>
<path d="M9.97989 32.9508L8.08398 11.6875H28.9162L27.0177 32.9475L18.4874 35.3125L9.97989 32.9508Z" fill="#E44F26"/>
<path d="M18.5 33.5052L25.3934 31.5941L27.0151 13.4265H18.5V33.5052Z" fill="#F1662A"/>
<path d="M18.5 21.3122H15.0491L14.8111 18.6417H18.5V16.0337H11.9609L12.0234 16.734L12.6638 23.9202H18.5V21.3122ZM18.5 28.0849L18.4882 28.0883L15.584 27.3045L15.3984 25.2246H12.7802L13.1456 29.3185L18.4882 30.8018L18.5 30.7984V28.0849Z" fill="#EBEBEB"/>
<path d="M18.4907 21.3122V23.9202H21.702L21.4 27.3028L18.4907 28.0875V30.801L23.8376 29.3185L23.8764 28.8781L24.4889 22.0125L24.5531 21.3122H18.4907ZM18.4907 16.0337V18.6417H24.7902L24.8425 18.0561L24.9614 16.734L25.0239 16.0337H18.4907Z" fill="white"/>
<path d="M23.6109 41.2508L21.8562 21.5625H41.1437L39.3867 41.2477L31.4882 43.4375L23.6109 41.2508Z" fill="#1572B6"/>
<path d="M31.5 41.7641L37.8828 39.9945L39.3844 23.1727H31.5V41.7641Z" fill="#33A9DC"/>
<path d="M31.5 30.3055H34.6953L34.9156 27.8328H31.5V25.418H37.5547L37.4969 26.0656L36.9039 32.7203H31.5V30.3055Z" fill="white"/>
<path d="M31.5148 36.5766L31.5039 36.5797L28.8148 35.8531L28.643 33.9273H26.2188L26.557 37.7187L31.5031 39.0922L31.5148 39.0891V36.5766Z" fill="#EBEBEB"/>
<path d="M34.4899 32.618L34.1993 35.8516L31.5063 36.5781V39.0906L36.4563 37.7188L36.4931 37.311L36.9126 32.618H34.4899Z" fill="white"/>
<path d="M31.5087 25.418V27.8328H25.6759L25.6274 27.2898L25.5173 26.0656L25.4595 25.418H31.5087ZM31.5001 30.3055V32.7203H28.8446L28.7962 32.1773L28.6868 30.9531L28.629 30.3055H31.5001Z" fill="#EBEBEB"/>
</svg>
