<svg width="80" height="94" viewBox="0 0 80 94" fill="none" xmlns="http://www.w3.org/2000/svg">
<path d="M35.8206 0.142953C28.5747 1.03509 22.1692 3.87371 16.9676 8.53717C12.3112 12.6734 9.47189 17.3166 7.92731 23.3386C7.47303 25.0823 7.45031 25.873 7.38217 40.3703C7.31403 52.11 7.35945 55.78 7.56388 56.4896C7.95003 57.6859 9.76718 59.3485 11.0846 59.6932C11.7433 59.8554 14.5372 59.9365 20.5792 59.9365H29.1425L29.0744 60.9706L29.0062 62.0047L21.0562 64.235C16.6951 65.4516 12.3566 66.7695 11.4253 67.1547C7.29131 68.8782 3.9523 71.8587 1.97615 75.6098C0.36343 78.6106 0.204429 79.5838 0.0908575 86.6399L0 92.9659L0.590574 93.4931L1.15843 94H40.0227H78.887L79.4321 93.4931L80 93.0065V87.4509C80 81.4492 79.7729 79.523 78.7734 77.0899C77.1153 72.9739 73.3901 69.2432 68.9608 67.2764C68.1885 66.9317 63.9637 65.634 59.5344 64.3972C55.1051 63.1604 51.3572 62.106 51.2209 62.0655C51.0392 62.0047 50.9256 61.5991 50.9256 60.9503V59.9365H59.4662C65.5309 59.9365 68.3021 59.8554 68.9608 59.6932C70.2783 59.3485 72.0954 57.6859 72.4815 56.4896C72.686 55.78 72.7314 52.1303 72.6633 40.3703C72.5951 25.7108 72.5724 25.1026 72.0954 23.298C70.5281 17.2558 67.757 12.6937 63.0778 8.51689C58.3532 4.29951 52.6519 1.56226 46.1329 0.426815C43.8614 0.0212978 38.0466 -0.140909 35.8206 0.142953ZM48.3589 23.663C49.8126 24.8593 51.8115 25.6297 54.0602 25.8528C56.2181 26.0555 57.3311 26.6435 57.8989 27.8804C58.4441 29.0564 58.1942 37.9777 57.5582 40.1067C56.3998 43.9591 54.5372 46.818 51.3799 49.5958C48.6769 51.9884 46.2692 53.3063 42.6576 54.3607L40.0454 55.1311L37.774 54.4823C30.0965 52.3128 24.6451 47.2033 22.5781 40.2689C22.1011 38.6266 22.0102 37.775 21.8966 34.3281C21.7831 29.6849 21.9194 28.955 23.2368 27.6168C24.8722 25.9744 24.7587 25.9947 34.0261 25.873L42.2033 25.7717L43.9069 25.0215C44.8382 24.6159 45.9512 23.9468 46.36 23.5616C46.7916 23.1561 47.2005 22.8317 47.2459 22.8317C47.314 22.8317 47.8137 23.1966 48.3589 23.663ZM18.2169 33.9834C18.2169 35.3013 18.1488 35.6055 17.8762 35.6055C17.2629 35.6055 16.3998 34.6525 16.3998 33.9834C16.3998 33.3143 17.2629 32.3613 17.8762 32.3613C18.1488 32.3613 18.2169 32.6655 18.2169 33.9834ZM63.0778 32.8682C63.4412 33.1724 63.6457 33.5982 63.6457 33.9834C63.6457 34.6525 62.7825 35.6055 62.1692 35.6055C61.8967 35.6055 61.8285 35.3013 61.8285 33.9834C61.8285 32.1586 62.0784 31.9558 63.0778 32.8682ZM35.4798 57.2196C36.5474 57.5845 38.0466 57.99 38.7961 58.1117C40.636 58.4361 42.5894 58.0103 47.0187 56.3477C47.2232 56.2666 47.2913 57.0573 47.2913 59.9771C47.2913 64.3567 47.314 64.4175 49.3583 64.9244C50.1079 65.1069 50.7666 65.3299 50.812 65.411C50.8802 65.4921 50.812 66.0598 50.6985 66.6478C49.7445 71.068 45.0653 74.5352 40.0227 74.5352C34.9801 74.5352 30.301 71.068 29.347 66.6478C29.2107 66.0396 29.188 65.4718 29.2788 65.411C29.3924 65.3502 30.0511 65.1271 30.7553 64.9244C32.7314 64.3972 32.7541 64.3364 32.7541 59.9771C32.7541 56.4896 32.7768 56.2463 33.163 56.3882C33.3674 56.4896 34.4123 56.8546 35.4798 57.2196Z" fill="#590099"/>
<path d="M33.3218 31.2463C32.7766 31.7126 32.7539 31.8748 32.7539 33.9835C32.7539 36.0922 32.7766 36.2544 33.3218 36.7208C33.6625 37.0452 34.1395 37.2277 34.5711 37.2277C35.0026 37.2277 35.4796 37.0452 35.8203 36.7208C36.3655 36.2544 36.3882 36.0922 36.3882 33.9835C36.3882 31.8748 36.3655 31.7126 35.8203 31.2463C35.4796 30.9219 35.0026 30.7394 34.5711 30.7394C34.1395 30.7394 33.6625 30.9219 33.3218 31.2463Z" fill="#590099"/>
<path d="M44.2251 31.2463C43.6799 31.7126 43.6572 31.8748 43.6572 33.9835C43.6572 36.0922 43.6799 36.2544 44.2251 36.7208C44.5658 37.0452 45.0428 37.2277 45.4744 37.2277C45.9059 37.2277 46.383 37.0452 46.7237 36.7208C47.2688 36.2544 47.2915 36.0922 47.2915 33.9835C47.2915 31.8748 47.2688 31.7126 46.7237 31.2463C46.383 30.9219 45.9059 30.7394 45.4744 30.7394C45.0428 30.7394 44.5658 30.9219 44.2251 31.2463Z" fill="#590099"/>
<path d="M33.731 43.959C33.1177 44.2226 32.6634 45.1756 32.8451 45.8447C33.0269 46.5138 35.3437 48.0345 36.911 48.5211C38.501 49.0077 41.5447 49.0077 43.1348 48.5211C44.7702 48.0142 46.9508 46.5544 47.1552 45.8244C47.4505 44.7701 46.5192 43.7157 45.2699 43.7157C45.0428 43.7157 44.4068 44.0401 43.8616 44.4254C42.6805 45.2364 41.2267 45.7433 40.0229 45.7433C38.819 45.7433 37.3653 45.2364 36.1842 44.4254C35.1393 43.6955 34.5941 43.5941 33.731 43.959Z" fill="#590099"/>
</svg>
