<svg width="80" height="81" viewBox="0 0 80 81" fill="none" xmlns="http://www.w3.org/2000/svg">
<path d="M16.474 0.200862C14.4731 0.529129 12.8474 1.02935 11.1279 1.85783C8.95513 2.88952 7.37632 3.99938 5.68809 5.68761C-3.05006 14.4258 -1.51815 28.8226 8.8926 35.6068C12.2378 37.7952 17.0055 39.0301 20.632 38.6394L21.9607 38.4987L21.9764 40.1556C21.992 41.8595 22.3359 43.5477 22.9455 44.9233C23.2426 45.5955 23.2426 45.6267 22.9768 45.9706C20.6164 48.9876 22.5548 53.5989 26.4158 54.1461L27.1349 54.2555L27.4006 55.4904C27.5569 56.2094 27.9633 57.3193 28.3854 58.1634C28.9638 59.3202 29.3702 59.8673 30.4488 60.9615C31.1835 61.7118 32.1996 62.5403 32.6998 62.8217C33.1844 63.0874 33.5908 63.3688 33.5908 63.4157C33.5908 63.4782 33.1531 63.7752 32.6216 64.0722C29.9486 65.6041 27.6038 68.5273 26.5877 71.6224C25.9781 73.4825 25.7749 74.9832 25.7749 77.7656V80.0166H39.9998H54.2247V77.7656C54.2247 74.9832 54.0215 73.4825 53.4118 71.6224C52.3801 68.4647 50.1135 65.6667 47.2686 63.9941L46.2369 63.4001L47.1122 62.9155C49.7071 61.5399 52.0675 58.2416 52.6615 55.209L52.8491 54.2555L53.5838 54.1461C56.46 53.7396 58.4765 50.9884 57.9607 48.1747C57.7887 47.2368 57.5074 46.5959 57.0228 45.9706C56.757 45.6267 56.757 45.5955 57.054 44.9233C57.6637 43.5477 58.0076 41.8595 58.0232 40.1556L58.0388 38.4987L59.2112 38.6394C62.7127 39.0301 67.4961 37.8734 70.7318 35.8413C74.7492 33.3246 77.5316 29.8074 79.001 25.4305C80.5798 20.6785 80.2828 15.6138 78.1413 11.1275C77.1096 8.95465 75.9997 7.37584 74.3115 5.68761C67.0896 -1.53426 55.6472 -1.92506 47.9407 4.78097C42.0319 9.90818 39.781 18.2712 42.3602 25.5399C42.6103 26.259 42.8135 26.8843 42.8135 26.9312C42.8135 26.9781 41.5473 27.025 39.9998 27.025C38.4523 27.025 37.1861 26.9781 37.1861 26.9312C37.1861 26.8843 37.3893 26.259 37.655 25.5243C38.7336 22.4761 38.9681 18.6463 38.2959 15.4575C36.6702 7.82916 30.9021 2.06104 23.1957 0.372811C21.6637 0.0289128 18.0372 -0.0648778 16.474 0.200862ZM22.4922 2.88952C28.7762 4.07754 33.9034 8.86086 35.576 15.1136C35.9355 16.4579 35.9981 16.9425 35.9981 19.2872C36.0137 21.7102 35.9668 22.0853 35.5916 23.4453C35.3572 24.2738 34.9507 25.4462 34.6694 26.0558C34.1848 27.1656 34.1692 27.1813 33.5908 27.1813C31.4649 27.1813 27.5257 29.0102 25.8687 30.7609L25.3997 31.2455L24.7432 30.6046L24.071 29.9481L24.7276 29.4479C25.5404 28.8226 26.1501 27.9785 26.6346 26.7592L27.0098 25.8526L27.8227 25.7275C29.6203 25.4774 31.3711 24.0237 31.9494 22.3511C32.2464 21.4601 32.2464 19.8812 31.9494 19.0215C31.7462 18.4275 31.7462 18.2399 31.9494 17.4896C32.2464 16.3641 32.2464 13.8943 31.9494 12.7219C31.2616 10.0332 29.1514 7.42273 26.7128 6.25035C24.5869 5.21866 23.7115 5.10923 18.8188 5.17176C14.9421 5.23429 14.5044 5.26555 13.504 5.59382C8.40801 7.25078 5.43798 12.55 6.76668 17.5834C6.93863 18.2399 6.93863 18.4431 6.73542 18.9746C6.61036 19.3185 6.50094 20.1001 6.48531 20.7097C6.45404 23.2108 8.36112 25.368 10.9247 25.7275C11.7219 25.8526 11.7532 25.8682 11.9408 26.5091C12.2222 27.447 13.035 28.6507 13.8635 29.3697L14.5826 29.9794L13.7697 30.8391C13.2539 31.3706 12.7224 32.1834 12.3785 32.9181C12.0658 33.5903 11.7845 34.153 11.7688 34.1843C11.6125 34.4031 9.22087 32.7774 7.84527 31.4956C5.29729 29.1196 3.53091 25.8995 2.85874 22.398C2.46795 20.2877 2.60863 16.8018 3.17138 14.9103C3.99986 12.1123 5.2504 9.90818 7.17311 7.89169C9.67419 5.26555 12.5348 3.65548 16.0988 2.87389C17.4901 2.57689 20.8978 2.57689 22.4922 2.88952ZM65.0888 3.1709C66.8864 3.70238 69.3406 4.89039 70.638 5.89082C71.9042 6.84436 73.8113 8.84522 74.5929 10.0176C75.437 11.315 76.3436 13.3003 76.8282 14.9103C77.3753 16.8174 77.5316 20.3189 77.1409 22.398C76.4843 25.8682 74.7492 29.0571 72.2169 31.4487C70.935 32.6524 68.6841 34.2156 68.2308 34.2156C68.1213 34.2156 67.7462 32.9807 67.84 32.9181C67.8712 32.9025 68.3245 32.6837 68.8404 32.4335C70.0284 31.8395 71.7948 30.0888 72.467 28.8226C73.483 26.8843 73.5299 26.5247 73.5143 21.0849C73.5143 16.5048 73.483 16.0827 73.1704 14.9103C71.6072 9.25165 67.0115 5.50003 61.259 5.18739C57.7887 5.01544 54.4748 6.21909 51.9581 8.61075C49.8791 10.5803 48.7223 12.5187 48.1127 15.0823C47.8313 16.2703 47.8157 16.8643 47.8469 21.8665L47.8938 27.3689L47.3467 27.2751C47.0497 27.2282 46.5808 27.1813 46.315 27.1813C45.8617 27.1813 45.7835 27.1031 45.3302 26.0558C45.0489 25.4462 44.6424 24.2738 44.408 23.4453C44.0328 22.0853 43.9859 21.7102 44.0015 19.2872C44.0015 16.9268 44.0484 16.4579 44.4236 15.0823C46.0493 9.01717 51.0202 4.29638 57.1947 2.93642C59.2425 2.4831 63.1661 2.60815 65.0888 3.1709ZM25.3059 8.4388C27.4162 9.45486 28.8387 11.1275 29.4015 13.2534C29.6672 14.2851 29.7766 15.7857 29.589 15.9733C29.5265 16.0202 29.2295 15.9577 28.9169 15.8326C28.5573 15.6763 27.5413 15.5356 26.1657 15.4575C23.055 15.2699 21.9451 14.8478 20.1475 13.1752L19.3815 12.4718L18.2717 13.3941C16.4271 14.9572 15.0046 15.4575 12.5192 15.4575C11.2999 15.4575 10.1275 15.6607 9.33029 16.0046C9.08018 16.0984 9.04892 16.0046 9.04892 15.1292C9.04892 11.9716 11.1748 9.06407 14.1761 8.0949C14.9734 7.82916 15.5517 7.81353 19.6004 7.84479L24.1336 7.87606L25.3059 8.4388ZM63.1035 8.03237C64.9168 8.45443 66.3549 9.29855 67.84 10.7679C68.9029 11.8153 69.325 12.3624 69.8252 13.3784C70.8725 15.5044 70.9819 16.2859 70.9194 21.5695C70.8725 25.9464 70.8569 26.1965 70.5286 26.9155C69.9502 28.1504 69.1218 29.1509 68.1213 29.823C66.9177 30.6203 66.1986 30.7766 65.7609 30.3389L65.4483 30.0263L66.3706 29.104C67.4648 28.041 68.0901 26.853 68.3089 25.4462C68.3871 24.899 68.434 22.7262 68.4183 20.6159L68.3714 16.7862L66.9646 16.6924C64.5417 16.536 63.2599 15.7388 61.6342 13.3315C61.1339 12.6125 60.6806 12.0185 60.6181 12.0185C60.5712 12.0185 60.1648 12.5656 59.7271 13.2377C58.1014 15.6919 56.7101 16.5829 54.3341 16.6767L52.9585 16.7393L53.0054 21.4601C53.0523 25.9776 53.0679 26.1965 53.4118 26.9468C53.9277 28.0879 54.5217 28.8695 55.272 29.4479L55.9286 29.9481L55.2564 30.6046L54.5999 31.2455L54.0684 30.6828C53.7714 30.3702 52.9429 29.7449 52.2551 29.2759C50.348 28.0098 50.3949 28.1973 50.3949 21.632C50.3949 16.5048 50.4105 16.2703 50.7544 15.1448C51.3172 13.3628 52.0988 12.081 53.4431 10.7523C54.7405 9.47049 56.4288 8.48569 58.1326 8.048C59.2738 7.751 61.8686 7.73537 63.1035 8.03237ZM20.0849 16.4266C20.9759 17.0206 22.7736 17.7397 23.7897 17.8804L24.54 17.9898L24.4931 21.7727C24.4462 25.2742 24.4149 25.5868 24.1179 26.1652C23.6802 26.9624 23.055 27.5877 22.2578 28.0254C21.695 28.3224 21.3824 28.3537 19.3659 28.3537C17.1462 28.3537 17.0836 28.338 16.2552 27.8847C15.8018 27.6346 15.2547 27.2125 15.0515 26.9468C14.2543 25.8995 14.2074 25.5712 14.2074 21.6633V18.0211L15.2235 17.8179C16.2083 17.6146 18.3185 16.708 18.9751 16.1765C19.147 16.0515 19.3033 15.9264 19.319 15.9264C19.3346 15.9264 19.6785 16.1453 20.0849 16.4266ZM63.1504 18.3337C63.7288 18.6307 64.5573 18.959 64.995 19.0684L65.7922 19.2716V22.2416C65.7766 25.4305 65.6828 25.9776 64.9637 26.9155C64.7605 27.1969 64.1978 27.6346 63.7444 27.8847C62.916 28.338 62.8534 28.3537 60.6337 28.3537C58.1483 28.3537 57.6481 28.213 56.6633 27.2438C55.6472 26.2121 55.5534 25.8526 55.5065 22.398L55.4596 19.2403L56.1005 19.1309C57.0384 18.9746 59.0236 17.9273 59.9303 17.1301L60.7119 16.4266L61.4153 17.1301C61.8061 17.5052 62.5877 18.0523 63.1504 18.3337ZM11.55 20.6941V23.2733L11.1279 23.1795C9.39282 22.7731 8.47054 20.741 9.40845 19.3498C9.84614 18.7089 10.6903 18.1149 11.1748 18.1149H11.55V20.6941ZM28.276 18.3493C28.9169 18.6776 29.5422 19.5686 29.6359 20.272C29.7454 21.1005 29.4796 21.8665 28.8544 22.4449C28.3854 22.9138 27.3068 23.3359 27.1192 23.1483C27.0723 23.1014 27.0254 21.9446 27.0254 20.5847V18.1149H27.4162C27.6507 18.1149 28.0259 18.2243 28.276 18.3493ZM48.3941 30.1982C51.4735 31.2299 53.9433 33.6997 54.9594 36.7792C55.5378 38.5456 55.569 41.2342 55.0375 42.9537L54.678 44.0948L54.0996 44.001C53.787 43.9542 53.3962 43.9073 53.2555 43.9073C53.0211 43.9073 52.9742 43.704 52.9429 42.6098L52.896 41.328L51.5673 41.2499C48.8005 41.0623 47.1279 39.6867 46.4088 36.9824C46.2212 36.279 46.0493 35.685 46.018 35.6537C46.0024 35.6381 44.0015 36.5916 41.5942 37.7952C39.1869 38.9833 36.7953 40.1244 36.2951 40.312C34.9976 40.8122 32.7467 41.2499 31.5118 41.2499C30.5895 41.2499 30.4019 41.203 30.0736 40.8591C29.8235 40.6246 29.6828 40.2963 29.6828 39.9993C29.6828 39.2021 30.2768 38.7488 31.3242 38.7488H32.1839V37.4044V36.0445L31.0272 36.1383C29.7297 36.2321 28.9169 36.576 28.1666 37.3732C27.2912 38.2798 27.1349 38.8738 27.0567 41.5156C26.9942 43.6103 26.9629 43.9073 26.7284 43.9073C26.5877 43.9073 26.2126 43.9542 25.9 44.001L25.3372 44.0948L24.9933 43.0319C24.4775 41.3905 24.3993 39.2959 24.8214 37.6546C25.7905 33.7466 28.4948 31.0111 32.3402 29.995C33.4345 29.7136 33.9816 29.698 40.3124 29.7293L47.1122 29.7605L48.3941 30.1982ZM21.3355 31.3862C22.1796 31.7614 23.0393 32.4023 23.4301 32.965L23.7428 33.4027L23.18 34.5751L22.6329 35.7475L21.6481 35.9194C20.1006 36.1852 17.8027 36.1226 16.0363 35.7631C15.1609 35.5912 14.395 35.4036 14.3481 35.3411C14.1605 35.1378 14.7076 33.7935 15.286 33.0276C15.9113 32.1834 17.1931 31.3393 18.1779 31.1048C19.0532 30.886 20.507 31.0267 21.3355 31.3862ZM62.9316 31.5582C64.2915 32.2303 65.4796 33.731 65.6515 34.9972C65.714 35.3567 65.6359 35.4036 64.5417 35.6693C62.9785 36.0445 59.9303 36.1852 58.4922 35.9507L57.3667 35.7475L56.8196 34.5751L56.2568 33.4027L56.5695 32.965C56.9134 32.4804 57.6637 31.8864 58.3984 31.4956C59.7583 30.8078 61.4153 30.8235 62.9316 31.5582ZM44.9863 40.2182C46.0493 41.8751 47.8 43.1569 49.5821 43.5946L50.3168 43.7822V48.7375C50.3168 51.5824 50.2386 54.0992 50.1448 54.6306C50.051 55.1309 49.6915 56.1469 49.3476 56.866C48.2221 59.2264 46.0806 60.9771 43.5169 61.6493C42.2508 61.9776 37.7645 61.9776 36.5139 61.6493C33.919 60.9771 31.7775 59.2264 30.652 56.8816C30.3081 56.1469 29.9486 55.1309 29.8548 54.6306C29.761 54.0992 29.6828 51.5824 29.6828 48.7687V43.8291L31.4492 43.8135C34.5912 43.7666 36.5295 43.1726 41.094 40.8591C42.8604 39.9681 44.2985 39.2334 44.3142 39.2177C44.3298 39.2177 44.6268 39.6711 44.9863 40.2182ZM27.0254 48.9876V51.5668H26.6503C26.2126 51.5668 25.3685 51.0197 24.9464 50.4413C24.7745 50.2225 24.6025 49.6754 24.5556 49.2533C24.4306 47.8465 25.4779 46.5803 26.916 46.424C26.9785 46.4083 27.0254 47.5651 27.0254 48.9876ZM54.3029 46.8929C55.0688 47.3462 55.5221 48.3154 55.444 49.2533C55.3971 49.6754 55.2251 50.2225 55.0532 50.4413C54.6311 51.0197 53.787 51.5668 53.3493 51.5668H52.9742V48.9876V46.4083L53.4118 46.5021C53.6463 46.5647 54.0527 46.7366 54.3029 46.8929ZM37.7332 66.2607C36.6233 67.3705 35.9824 67.902 35.9199 67.777C35.8574 67.6832 35.7792 67.0892 35.748 66.4639L35.6698 65.354L36.4983 65.0883C37.2955 64.8382 38.4991 64.6037 39.1401 64.5568C39.3433 64.5412 38.9212 65.0727 37.7332 66.2607ZM41.7975 64.6975C42.3133 64.7757 43.0949 64.9632 43.5326 65.1039L44.3298 65.354L44.2516 66.4639C44.2204 67.0892 44.1422 67.6832 44.0797 67.777C44.0172 67.902 43.3763 67.3705 42.2664 66.2607C41.3285 65.3071 40.6251 64.5412 40.7032 64.5412C40.797 64.5412 41.2816 64.6193 41.7975 64.6975ZM33.4188 69.4183C33.5283 70.8251 33.6533 72.3727 33.7002 72.8729L33.794 73.7952L36.9047 70.6845L39.9998 67.5894L43.0949 70.6845L46.2056 73.7952L46.2994 72.8729C46.3463 72.3727 46.4713 70.8251 46.5808 69.4183C46.7058 67.8551 46.8465 66.8859 46.9403 66.8859C47.2373 66.8859 49.4414 69.2932 49.9885 70.2155C50.942 71.8256 51.4579 73.6076 51.536 75.5928L51.6142 77.3592H39.9998H28.3854L28.4636 75.5928C28.5417 73.6076 29.0576 71.8256 30.0111 70.2155C30.5582 69.2932 32.7623 66.8859 33.0593 66.8859C33.1531 66.8859 33.2938 67.8551 33.4188 69.4183Z" fill="#590099"/>
<path d="M33.4501 45.4234C32.481 45.7673 31.4649 46.8459 31.1679 47.8619C30.7927 49.0968 30.7615 49.0656 32.2621 49.0656C33.4501 49.0656 33.5908 49.0343 33.5908 48.7842C33.5908 48.3153 34.2474 47.815 34.857 47.815C35.451 47.815 36.0919 48.3309 36.0919 48.7998C36.0919 49.0343 36.2795 49.0656 37.4206 49.0656H38.7649L38.6555 48.4716C38.2178 46.0174 35.7949 44.5949 33.4501 45.4234Z" fill="#590099"/>
<path d="M43.8766 45.3922C42.5948 45.8611 41.5944 47.0961 41.3443 48.4717L41.2349 49.0657H42.5792C43.7672 49.0657 43.9079 49.0344 43.9079 48.7843C43.9079 48.3153 44.5644 47.8151 45.1741 47.8151C45.7681 47.8151 46.409 48.331 46.409 48.7999C46.409 49.0344 46.5966 49.0657 47.7533 49.0657H49.0976L48.9882 48.4717C48.5349 46.0487 46.0963 44.5793 43.8766 45.3922Z" fill="#590099"/>
<path d="M34.8882 54.9277C35.2009 57.1474 37.2017 59.0545 39.4996 59.3358C41.1878 59.5234 43.2043 58.6011 44.1891 57.163C44.6893 56.4283 45.1583 55.2091 45.1583 54.615C45.1583 54.2243 45.1427 54.2243 43.8452 54.2243H42.5478L42.454 54.7714C42.2664 55.9281 41.266 56.7253 39.9998 56.7253C38.7336 56.7253 37.7332 55.9281 37.5456 54.7714L37.4518 54.2243H36.1231H34.7944L34.8882 54.9277Z" fill="#590099"/>
<path d="M5.14111 46.4872V47.831L6.43806 47.7841L7.71938 47.7373L7.76626 46.4403L7.81314 45.159H6.46931H5.14111V46.4872Z" fill="#590099"/>
<path d="M72.2324 46.4403L72.2793 47.7373L73.5762 47.7841L74.8576 47.831V46.4872V45.159H73.5294H72.1855L72.2324 46.4403Z" fill="#590099"/>
<path d="M5.14111 51.6455V52.9893L6.43806 52.9424L7.71938 52.8956L7.76626 51.5986L7.81314 50.3173H6.46931H5.14111V51.6455Z" fill="#590099"/>
<path d="M72.2324 51.5986L72.2793 52.8956L73.5762 52.9424L74.8576 52.9893V51.6455V50.3173H73.5294H72.1855L72.2324 51.5986Z" fill="#590099"/>
<path d="M5.17238 62.462C5.21928 69.2931 5.23491 69.4807 5.56318 70.0903C5.75076 70.4342 6.12592 70.9344 6.42292 71.2158C7.42336 72.185 7.54841 72.2006 13.4572 72.2006H18.8189L17.3339 73.6856L15.8489 75.1707L16.7868 76.1086L17.7247 77.0465L20.7416 74.0295L23.7429 71.0282L20.6947 67.98L17.6465 64.9319L16.7555 65.8385L15.8489 66.7295L17.3339 68.2145L18.8189 69.6995H13.6917H8.56447L8.18931 69.3087L7.79852 68.9336V62.1963V55.4746H6.46982H5.12549L5.17238 62.462Z" fill="#590099"/>
<path d="M72.2012 62.1963V68.9336L71.8104 69.3087L71.4353 69.6995H66.3081H61.1808L62.6659 68.2145L64.1509 66.7295L63.2442 65.8385L62.3532 64.9319L59.305 67.98L56.2568 71.0282L59.2581 74.0295L62.2751 77.0465L63.213 76.1086L64.1509 75.1707L62.6659 73.6856L61.1808 72.2006H66.5425C72.4513 72.2006 72.5764 72.185 73.5768 71.2158C73.8738 70.9344 74.249 70.4342 74.4366 70.0903C74.7648 69.4807 74.7805 69.2931 74.8274 62.462L74.8743 55.4746H73.5299H72.2012V62.1963Z" fill="#590099"/>
</svg>
