<svg width="43" height="50" viewBox="0 0 43 50" fill="none" xmlns="http://www.w3.org/2000/svg">
<path d="M6.11465e-08 25C-0.000315705 28.9252 1.22236 32.7952 3.56903 36.2968C5.9157 39.7985 9.32042 42.8332 13.5075 45.1555C17.6947 47.4777 22.5465 49.0222 27.6702 49.6638C32.794 50.3054 38.0456 50.0261 43 48.8485C36.284 47.2534 30.4166 44.0805 26.2512 39.7913C22.0858 35.5022 19.8398 30.3205 19.8398 25C19.8398 19.6795 22.0858 14.4978 26.2512 10.2087C30.4166 5.91948 36.284 2.74656 43 1.15145C38.0456 -0.0260932 32.794 -0.305373 27.6702 0.336224C22.5465 0.977822 17.6947 2.52227 13.5075 4.84451C9.32042 7.16676 5.9157 10.2015 3.56903 13.7032C1.22236 17.2048 -0.000315705 21.0748 6.11465e-08 25Z" fill="#590099"/>
</svg>
