<svg width="43" height="66" viewBox="0 0 43 66" fill="none" xmlns="http://www.w3.org/2000/svg">
<path d="M6.04633e-08 32.6949C-0.000312178 37.8282 1.2087 42.8895 3.52915 47.4689C5.84961 52.0483 9.21629 56.0172 13.3566 59.0542C17.497 62.0912 22.2946 64.111 27.3611 64.9501C32.4276 65.7892 37.6205 65.424 42.5196 63.884C35.8786 61.7979 30.0767 57.6484 25.9579 52.039C21.839 46.4296 19.6181 39.653 19.6181 32.6949C19.6181 25.7368 21.839 18.9602 25.9579 13.3508C30.0767 7.74148 35.8786 3.59195 42.5196 1.50587C37.6205 -0.0341246 32.4276 -0.399366 27.3611 0.439713C22.2946 1.27879 17.497 3.29861 13.3566 6.33564C9.21629 9.37266 5.84961 13.3415 3.52915 17.921C1.2087 22.5004 -0.000312178 27.5616 6.04633e-08 32.6949V32.6949Z" fill="#590099"/>
</svg>
