<svg width="80" height="81" viewBox="0 0 80 81" fill="none" xmlns="http://www.w3.org/2000/svg">
<path d="M20.5556 0.76713C15.4271 2.6017 11.6746 7.68845 11.6746 12.8169C11.6746 13.6508 11.3411 14.5264 10.8407 15.0267C10.1736 15.6938 10.0068 16.4026 10.0068 18.4874C10.0068 21.4477 10.7573 22.9487 12.3 22.9487C13.0505 22.9487 13.4675 23.4074 14.1763 24.825C15.5105 27.5351 20.0553 31.2877 22.0566 31.2877C23.1824 31.2877 23.9329 29.87 23.3491 28.786C22.8905 27.9521 20.4722 27.285 19.3881 27.6602C18.5959 27.9938 16.5112 26.2009 15.6773 24.4497C15.3021 23.6575 15.0102 21.9897 15.0102 20.7389V18.4874L16.9282 17.9454C19.6383 17.1948 23.2241 14.7349 25.684 11.983L27.7688 9.60641L28.4359 11.024C29.3949 12.9837 31.3545 15.1518 33.1057 16.0691C34.565 16.8613 34.565 16.903 34.6901 19.8216L34.8152 22.7402L36.5664 22.8653C38.9013 23.0321 39.6101 21.9897 39.6101 18.4874C39.6101 16.486 39.4433 15.7355 38.8179 15.1518C38.3175 14.6515 37.984 13.5674 37.8172 12.0247C37.1918 5.39524 32.1467 0.558656 25.5173 0.141709C23.5159 0.0583195 22.0983 0.225098 20.5556 0.76713Z" fill="#590099"/>
<path d="M47.4904 0.641976C45.5724 1.68434 45.4056 2.76841 45.5307 14.1511L45.6558 24.6998L46.8233 25.7005C47.4487 26.2425 48.4493 26.7012 49.0331 26.7012C50.409 26.7012 50.3256 27.1181 48.2826 29.6198C45.3222 33.2472 45.2805 33.3723 45.7809 33.8727C46.7399 34.8316 51.7015 32.4133 56.5381 28.7025L59.1649 26.7012H68.2543C78.1777 26.7012 78.6363 26.6178 79.5953 24.2829C79.9705 23.449 80.0539 20.0717 79.9705 12.7751L79.8455 2.43485L78.4695 1.2257L77.1353 0.0165555H62.834C51.3263 0.0582502 48.366 0.183334 47.4904 0.641976ZM66.9201 2.68502C68.2126 3.22705 68.3377 3.43552 68.0042 4.31111C67.6706 5.1867 67.7957 5.52026 68.9214 6.60432C69.9221 7.5633 70.4225 7.81347 70.8811 7.5216C71.2147 7.31313 71.7567 7.10466 72.0486 7.10466C72.7574 7.10466 74.175 10.1067 73.5496 10.3151C72.257 10.7738 71.8401 11.5243 72.0069 13.2338C72.1319 14.2345 72.4238 15.0267 72.7157 15.0267C74.0499 15.0683 74.2584 15.6938 73.5913 17.4449C72.9241 19.0293 72.7991 19.1127 71.8401 18.7375C70.8811 18.4039 70.5892 18.4873 69.5886 19.6965C68.9214 20.447 68.5045 21.3226 68.5879 21.5727C68.713 21.8646 68.8798 22.3649 69.0048 22.6568C69.1716 22.9903 68.6296 23.4907 67.6706 23.9493C66.2113 24.6581 66.0862 24.6581 65.5859 23.9493C65.294 23.5324 65.0438 23.0737 65.0438 22.907C65.0438 22.7402 64.2099 22.6151 63.1676 22.6568C61.5832 22.7402 61.2079 22.907 60.9995 23.6575C60.7493 24.7415 59.832 24.8666 58.1642 24.1161C57.372 23.7408 57.1635 23.449 57.372 22.7819C57.4971 22.2815 57.6639 21.7812 57.7056 21.6561C57.7056 21.531 57.1635 20.9056 56.413 20.3219C55.329 19.3629 54.9537 19.2378 54.0364 19.6131C53.0775 19.9466 52.9107 19.8632 52.327 18.7792C51.4931 17.1531 51.5348 16.4026 52.5354 16.069C53.2025 15.8605 53.3693 15.4436 53.3693 13.9426C53.3693 12.3165 53.2442 12.0246 52.2853 11.6911C51.5348 11.3992 51.2846 11.0657 51.4514 10.607C51.5765 10.2318 51.8266 9.48125 51.9517 8.89753C52.2019 7.98024 52.4103 7.89686 53.4527 8.10533C54.4951 8.3138 54.912 8.10533 55.9127 7.06296C56.9134 5.9789 57.0385 5.64534 56.6632 4.89484C56.2463 4.18603 56.3296 3.89416 57.1218 3.26874C58.331 2.26807 59.4984 2.30976 60.0405 3.35213C60.374 3.97755 60.9161 4.18603 62.3337 4.18603C63.9598 4.18603 64.2099 4.06094 64.4601 3.14366C64.752 1.93451 65.0021 1.89282 66.9201 2.68502Z" fill="#590099"/>
<path d="M60.207 7.68852C58.6643 8.35563 57.33 9.98173 56.7046 11.8997C55.4955 15.4854 58.7894 19.6132 62.8337 19.6132C68.5459 19.6132 71.0059 11.7329 66.3361 8.39733C64.7517 7.27157 61.8748 6.93801 60.207 7.68852ZM65.3771 9.60647C65.4188 9.60647 65.8358 10.2319 66.2944 10.9407C67.5036 12.9421 67.3785 14.7349 65.9192 16.361C64.8768 17.5285 64.4181 17.7369 62.7504 17.7369C61.0826 17.7369 60.6239 17.5285 59.5816 16.361C56.5378 12.9837 59.6233 8.02208 64.0012 9.27292C64.6683 9.4397 65.2937 9.60647 65.3771 9.60647Z" fill="#590099"/>
<path d="M10.8404 26.4094C10.8404 27.4101 10.7153 30.2454 10.5485 32.7053L10.2983 37.125L12.3414 36.2494C14.4678 35.2904 19.6796 33.7894 20.9305 33.7894C21.3057 33.7894 21.7227 34.123 21.8061 34.4982C21.9729 35.0819 22.0146 35.0402 22.0562 34.3314C22.0979 33.6226 21.681 33.2057 20.2217 32.5803C17.72 31.4545 14.6346 28.8277 13.1753 26.4928C11.6326 24.0745 10.8404 24.0328 10.8404 26.4094Z" fill="#590099"/>
<path d="M33.8561 26.0342C33.0639 28.1606 31.0626 30.704 29.1863 31.9548C27.8938 32.7887 27.5185 33.3308 27.5602 34.1647C27.6019 34.8735 27.6853 34.9986 27.8104 34.4982C27.8938 34.123 28.3107 33.7894 28.686 33.7894C29.9368 33.7894 35.1486 35.2904 37.2751 36.2077L39.3181 37.125L39.0679 33.0806C38.9012 30.8291 38.7761 27.9938 38.7761 26.7847V24.6166H36.5663C34.4398 24.6166 34.3564 24.6583 33.8561 26.0342Z" fill="#590099"/>
<path d="M14.0926 37.4999C11.174 38.6673 9.42279 39.8765 7.33805 42.1697C3.46044 46.5059 2.50146 50.05 2.50146 60.5154C2.50146 67.9787 2.70994 69.5214 3.8357 70.1051C4.87806 70.6472 6.21229 70.1885 6.62924 69.1462C6.79602 68.6875 6.46246 64.4764 5.92043 59.7232C4.79467 50.0083 4.91976 49.1744 7.58822 47.5483C8.88076 46.7561 9.71465 46.7144 24.8498 46.7144C40.6938 46.7144 40.7355 46.7144 42.1531 47.6734C44.5714 49.2995 44.6965 50.3836 43.5708 60.0567C42.9036 65.5604 42.6952 68.7709 42.9453 69.2296C43.5291 70.3136 44.6131 70.5638 45.6555 69.8967C46.8229 69.1462 47.1148 67.1031 47.1148 60.3069C47.0731 49.9666 45.7806 45.6721 41.3192 41.3358C37.4416 37.4999 31.7295 35.6653 29.2278 37.3748C28.6857 37.7501 27.8102 39.126 27.2264 40.4185C25.4336 44.4629 24.3078 44.4629 22.3065 40.4602C21.5143 38.8758 20.4719 37.3748 20.0549 37.1246C18.8458 36.4992 16.3024 36.666 14.0926 37.4999Z" fill="#590099"/>
<path d="M8.9226 49.2998C7.17142 50.1337 7.12973 50.9676 8.38057 61.6832C9.29785 69.4384 9.7148 72.0235 10.2568 72.6072C10.9239 73.3577 11.7995 73.3994 24.6832 73.3994C37.817 73.3994 38.4008 73.3577 39.193 72.5655C39.6516 72.1068 40.0269 71.6065 40.0269 71.398C40.0269 71.2313 40.4855 67.1869 41.0692 62.3503C42.4034 51.0927 42.4034 50.7591 41.0275 49.6751C39.9435 48.8412 39.4848 48.7995 24.85 48.8412C15.3853 48.8412 9.46463 49.008 8.9226 49.2998Z" fill="#590099"/>
<path d="M8.6725 75.484C8.21386 76.1929 7.67183 76.3179 4.7115 76.3179C1.25084 76.3179 0 76.8183 0 78.1942C0 78.4861 0.291863 79.0698 0.667115 79.4033C1.25084 79.9871 4.00269 80.0705 24.8084 80.0705H48.3242L48.9496 79.1532C49.4916 78.361 49.5333 78.1108 49.033 77.3603C48.5743 76.6515 47.9489 76.5264 44.9886 76.4013C42.195 76.3179 41.3612 76.1095 40.7357 75.484C40.0269 74.6918 39.3598 74.6502 24.5999 74.6502C9.63148 74.6502 9.17284 74.6918 8.6725 75.484Z" fill="#590099"/>
</svg>
