<svg width="43" height="43" viewBox="0 0 43 43" fill="none" xmlns="http://www.w3.org/2000/svg">
<path d="M21.5 9.40625C19.1081 9.40625 16.7699 10.1155 14.7811 11.4444C12.7923 12.7733 11.2422 14.6621 10.3268 16.8719C9.41148 19.0818 9.17199 21.5134 9.63863 23.8594C10.1053 26.2053 11.2571 28.3602 12.9484 30.0516C14.6398 31.7429 16.7947 32.8947 19.1406 33.3614C21.4866 33.828 23.9182 33.5885 26.1281 32.6732C28.3379 31.7578 30.2267 30.2077 31.5556 28.2189C32.8845 26.2301 33.5938 23.8919 33.5938 21.5C33.5893 18.2939 32.3137 15.2204 30.0467 12.9533C27.7796 10.6863 24.7061 9.41069 21.5 9.40625ZM21.5 29.5625C19.9054 29.5625 18.3466 29.0896 17.0207 28.2037C15.6948 27.3178 14.6615 26.0586 14.0512 24.5854C13.441 23.1122 13.2813 21.4911 13.5924 19.9271C13.9035 18.3631 14.6714 16.9265 15.799 15.799C16.9265 14.6714 18.3631 13.9035 19.9271 13.5924C21.4911 13.2813 23.1122 13.441 24.5854 14.0512C26.0586 14.6615 27.3178 15.6948 28.2037 17.0207C29.0896 18.3466 29.5625 19.9054 29.5625 21.5C29.5625 23.6383 28.7131 25.689 27.201 27.201C25.689 28.7131 23.6383 29.5625 21.5 29.5625ZM19.4844 4.70312V2.01562C19.4844 1.48105 19.6967 0.968366 20.0747 0.590363C20.4527 0.21236 20.9654 0 21.5 0C22.0346 0 22.5473 0.21236 22.9253 0.590363C23.3033 0.968366 23.5156 1.48105 23.5156 2.01562V4.70312C23.5156 5.2377 23.3033 5.75038 22.9253 6.12839C22.5473 6.50639 22.0346 6.71875 21.5 6.71875C20.9654 6.71875 20.4527 6.50639 20.0747 6.12839C19.6967 5.75038 19.4844 5.2377 19.4844 4.70312ZM31.9477 11.0523C31.7597 10.8651 31.6106 10.6426 31.5089 10.3976C31.4072 10.1526 31.3548 9.88989 31.3548 9.62461C31.3548 9.35932 31.4072 9.09665 31.5089 8.85165C31.6106 8.60664 31.7597 8.38413 31.9477 8.19687L33.8457 6.29883C34.2244 5.92017 34.7379 5.70744 35.2734 5.70744C35.8089 5.70744 36.3225 5.92017 36.7012 6.29883C37.0798 6.67749 37.2926 7.19106 37.2926 7.72656C37.2926 8.26207 37.0798 8.77564 36.7012 9.1543L34.8031 11.0523C34.6155 11.2394 34.3928 11.3875 34.1478 11.4884C33.9028 11.5893 33.6403 11.6409 33.3754 11.6402C32.841 11.6379 32.3287 11.427 31.9477 11.0523ZM43 21.5C43 22.0346 42.7876 22.5473 42.4096 22.9253C42.0316 23.3033 41.519 23.5156 40.9844 23.5156H38.2969C37.7623 23.5156 37.2496 23.3033 36.8716 22.9253C36.4936 22.5473 36.2812 22.0346 36.2812 21.5C36.2812 20.9654 36.4936 20.4527 36.8716 20.0747C37.2496 19.6967 37.7623 19.4844 38.2969 19.4844H40.9844C41.519 19.4844 42.0316 19.6967 42.4096 20.0747C42.7876 20.4527 43 20.9654 43 21.5ZM36.7012 33.8457C36.8891 34.033 37.0382 34.2555 37.1399 34.5005C37.2416 34.7455 37.294 35.0082 37.294 35.2734C37.294 35.5387 37.2416 35.8014 37.1399 36.0464C37.0382 36.2914 36.8891 36.5139 36.7012 36.7012C36.5158 36.8913 36.2935 37.0415 36.048 37.1426C35.8025 37.2437 35.5389 37.2935 35.2734 37.2891C35.0085 37.2897 34.746 37.2381 34.501 37.1372C34.2561 37.0364 34.0334 36.8882 33.8457 36.7012L31.9477 34.8031C31.569 34.4245 31.3563 33.9109 31.3563 33.3754C31.3563 32.8399 31.569 32.3263 31.9477 31.9477C32.3263 31.569 32.8399 31.3563 33.3754 31.3563C33.9109 31.3563 34.4245 31.569 34.8031 31.9477L36.7012 33.8457ZM23.5156 38.2969V40.9844C23.5156 41.519 23.3033 42.0316 22.9253 42.4096C22.5473 42.7876 22.0346 43 21.5 43C20.9654 43 20.4527 42.7876 20.0747 42.4096C19.6967 42.0316 19.4844 41.519 19.4844 40.9844V38.2969C19.4844 37.7623 19.6967 37.2496 20.0747 36.8716C20.4527 36.4936 20.9654 36.2812 21.5 36.2812C22.0346 36.2812 22.5473 36.4936 22.9253 36.8716C23.3033 37.2496 23.5156 37.7623 23.5156 38.2969ZM11.0523 31.9477C11.2403 32.1349 11.3893 32.3574 11.4911 32.6024C11.5928 32.8474 11.6452 33.1101 11.6452 33.3754C11.6452 33.6407 11.5928 33.9033 11.4911 34.1484C11.3893 34.3934 11.2403 34.6159 11.0523 34.8031L9.1543 36.7012C8.96663 36.8882 8.74394 37.0364 8.49895 37.1372C8.25397 37.2381 7.9915 37.2897 7.72656 37.2891C7.46108 37.2935 7.19749 37.2437 6.95198 37.1426C6.70646 37.0415 6.48419 36.8913 6.29883 36.7012C6.11092 36.5139 5.96182 36.2914 5.86009 36.0464C5.75836 35.8014 5.70599 35.5387 5.70599 35.2734C5.70599 35.0082 5.75836 34.7455 5.86009 34.5005C5.96182 34.2555 6.11092 34.033 6.29883 33.8457L8.19687 31.9477C8.38413 31.7597 8.60664 31.6106 8.85165 31.5089C9.09665 31.4072 9.35932 31.3548 9.62461 31.3548C9.88989 31.3548 10.1526 31.4072 10.3976 31.5089C10.6426 31.6106 10.8651 31.7597 11.0523 31.9477ZM4.70312 23.5156H2.01562C1.48105 23.5156 0.968366 23.3033 0.590363 22.9253C0.21236 22.5473 0 22.0346 0 21.5C0 20.9654 0.21236 20.4527 0.590363 20.0747C0.968366 19.6967 1.48105 19.4844 2.01562 19.4844H4.70312C5.2377 19.4844 5.75038 19.6967 6.12839 20.0747C6.50639 20.4527 6.71875 20.9654 6.71875 21.5C6.71875 22.0346 6.50639 22.5473 6.12839 22.9253C5.75038 23.3033 5.2377 23.5156 4.70312 23.5156ZM6.29883 9.1543C5.92017 8.77564 5.70744 8.26207 5.70744 7.72656C5.70744 7.19106 5.92017 6.67749 6.29883 6.29883C6.67749 5.92017 7.19106 5.70744 7.72656 5.70744C8.26207 5.70744 8.77564 5.92017 9.1543 6.29883L11.0523 8.19687C11.2403 8.38413 11.3893 8.60664 11.4911 8.85165C11.5928 9.09665 11.6452 9.35932 11.6452 9.62461C11.6452 9.88989 11.5928 10.1526 11.4911 10.3976C11.3893 10.6426 11.2403 10.8651 11.0523 11.0523C10.6713 11.427 10.159 11.6379 9.62461 11.6402C9.35967 11.6409 9.0972 11.5893 8.85222 11.4884C8.60723 11.3875 8.38454 11.2394 8.19687 11.0523L6.29883 9.1543Z" fill="#590099"/>
</svg>
