<svg width="80" height="67" viewBox="0 0 80 67" fill="none" xmlns="http://www.w3.org/2000/svg">
<path d="M17.1875 0.695465C16.5938 1.28922 16.5625 1.72672 16.5625 7.82047V14.3205L14.9375 15.133C10 17.5392 6.875 22.5705 6.75 28.258L6.71875 30.9455L5.25 32.258C3.40625 33.883 1.84375 36.4142 0.8125 39.508C-0.1875 42.4767 -0.1875 43.0392 0.75 43.6642C1.375 44.0705 1.8125 44.1017 3.625 43.8205C4.8125 43.633 6.0625 43.4142 6.375 43.2892C6.78125 43.1955 6.40625 43.758 5.34375 44.9455C3.25 47.2892 1.09375 51.633 0.46875 54.8205C0.1875 56.2892 0 58.9455 0 61.6017C0 65.758 0.03125 66.008 0.6875 66.4455C1.3125 66.883 3.84375 66.9455 21.7812 66.9455C41.9375 66.9455 42.1875 66.9455 42.8438 66.2892C43.4375 65.6955 43.4688 65.3517 43.375 61.2892L43.2812 56.9455H61.0312C78.3438 56.9455 78.75 56.9455 79.375 56.3205C80 55.6955 80 55.2892 80 28.508C80 1.72672 80 1.32047 79.375 0.695465C78.75 0.0704651 78.3438 0.0704651 48.2812 0.0704651C18.2188 0.0704651 17.8125 0.0704651 17.1875 0.695465ZM76.5625 28.508V53.508L59.625 53.4455L42.7188 53.3517L42.4062 52.4142C42.25 51.883 41.6875 50.508 41.1562 49.3517L40.1875 47.2267L44.9375 42.4767C48.1562 39.258 49.6875 37.508 49.6875 37.0392C49.6875 36.3205 48.625 35.383 47.8438 35.383C47.5938 35.383 45.3125 37.4455 42.7812 39.9455L38.1875 44.508L36.3438 42.9767C35.3125 42.133 33.9375 41.1017 33.25 40.6955C32.5938 40.2892 31.9688 39.9142 31.9375 39.883C31.875 39.8517 32.5312 38.883 33.375 37.758C35.5 35.008 36.3125 32.7892 36.5 29.2267C36.5938 26.9142 36.5 25.9455 35.9688 24.1955C34.0625 17.8517 28.1562 13.508 21.5625 13.508H20V8.50797V3.50797H48.2812H76.5625V28.508ZM26.7188 18.1017C28.5312 19.0392 31.0625 21.383 31.875 22.883L32.25 23.6017L30.5 23.4142C28.1875 23.1955 25.6875 22.008 23.8125 20.258C22.0625 18.633 20.9375 18.4142 20.1875 19.508C19.9062 19.883 19.6875 20.508 19.6875 20.8517C19.6875 22.008 17.875 25.3517 16.5 26.7267C15.0938 28.1017 12.3438 29.633 10.9375 29.8205C10.2188 29.9142 10.1562 29.7892 10.0625 28.5392C9.9375 26.6955 11 23.3517 12.3125 21.5705C13.5938 19.8517 15.7812 18.258 17.9688 17.4767C20.4375 16.6017 24.3125 16.883 26.7188 18.1017ZM25.0312 25.133C27.375 26.3205 31.3125 27.1642 32.5312 26.7892C33.3438 26.508 33.5938 27.883 33.1875 30.1642C32.4375 34.1017 30.0312 37.383 26.625 39.0392C24.1875 40.2267 20.2812 40.4142 17.75 39.4767C15.4375 38.5705 13.375 36.9767 12.0312 34.9767L10.9375 33.3517L12.9688 32.6642C16.7812 31.383 19.6562 28.9455 21.4688 25.508C21.9375 24.5705 22.4062 23.8517 22.5 23.9142C22.5938 23.9455 23.7188 24.508 25.0312 25.133ZM8.125 34.7892C8.125 34.9767 8.5625 35.7892 9.09375 36.5705L10.0625 38.008L9.375 38.5705C8.59375 39.1955 4.4375 40.5705 4.15625 40.258C3.875 40.008 5.46875 36.9455 6.5625 35.6017C7.53125 34.4455 8.125 34.133 8.125 34.7892ZM16.5625 42.633C19.0312 43.6017 24.0625 43.6017 26.6875 42.633L28.5312 41.9767L30.1562 42.758C33.1562 44.2267 36.4688 47.4142 37.875 50.1955C39.375 53.133 39.75 54.7892 39.9062 59.1955L40.0938 63.508H21.75H3.4375V59.9767C3.4375 55.9767 3.90625 53.758 5.40625 50.6955C6.65625 48.133 10.3438 44.3517 12.9688 42.9455C14 42.4142 14.8438 41.9455 14.8438 41.9455C14.8438 41.9455 15.625 42.258 16.5625 42.633Z" fill="#590099"/>
<path d="M42.1877 10.6956C41.4377 11.4456 41.4064 11.8831 42.0627 12.8206L42.5314 13.5081H53.2502C63.2189 13.5081 64.0002 13.4769 64.4689 12.9456C65.1877 12.1331 65.1252 11.1331 64.3127 10.5706C63.7189 10.1331 62.1252 10.0706 53.2189 10.0706C43.2189 10.0706 42.7814 10.1019 42.1877 10.6956Z" fill="#590099"/>
<path d="M42.1877 20.6954C41.4377 21.4454 41.4064 21.8829 42.0627 22.8204L42.5314 23.5079H56.4377C65.4377 23.5079 70.5627 23.3829 70.9689 23.1954C71.8127 22.7266 71.7502 21.1954 70.8752 20.5704C70.2502 20.1329 68.3752 20.0704 56.5002 20.0704C43.2189 20.0704 42.7814 20.1016 42.1877 20.6954Z" fill="#590099"/>
<path d="M42.1877 30.6955C41.4377 31.4455 41.4064 31.883 42.0627 32.8205L42.5314 33.508H56.4377C65.4377 33.508 70.5627 33.383 70.9689 33.1955C71.8127 32.7267 71.7502 31.1955 70.8752 30.5705C70.2502 30.133 68.3752 30.0705 56.5002 30.0705C43.2189 30.0705 42.7814 30.1017 42.1877 30.6955Z" fill="#590099"/>
</svg>
