<svg width="50" height="50" viewBox="0 0 50 50" fill="none" xmlns="http://www.w3.org/2000/svg">
<circle cx="25" cy="25" r="24.5" fill="#E9E9E9" stroke="black"/>
<path d="M26.581 24.3499L15.512 22.3999V36.8089C15.5121 36.9654 15.5431 37.1204 15.6031 37.265C15.6631 37.4096 15.751 37.5409 15.8618 37.6515C15.9726 37.7621 16.1041 37.8498 16.2488 37.9095C16.3934 37.9693 16.5485 38 16.705 37.9999H35.805C35.9617 38.0003 36.1169 37.9698 36.2618 37.9101C36.4067 37.8505 36.5385 37.7628 36.6495 37.6522C36.7604 37.5416 36.8485 37.4101 36.9087 37.2654C36.9688 37.1207 36.9999 36.9656 37 36.8089V31.4999L26.581 24.3499Z" fill="#185C37"/>
<path d="M26.581 12H16.705C16.5485 11.9999 16.3934 12.0306 16.2488 12.0904C16.1041 12.1501 15.9726 12.2378 15.8618 12.3484C15.751 12.459 15.6631 12.5903 15.6031 12.7349C15.5431 12.8795 15.5121 13.0345 15.512 13.191V18.5L26.581 25L32.442 26.95L37 25V18.5L26.581 12Z" fill="#21A366"/>
<path d="M15.512 18.5H26.581V25H15.512V18.5Z" fill="#107C41"/>
<path opacity="0.1" d="M23.434 17.2H15.512V33.45H23.434C23.7497 33.4484 24.052 33.3225 24.2755 33.0996C24.499 32.8766 24.6256 32.5746 24.628 32.259V18.391C24.6256 18.0753 24.499 17.7733 24.2755 17.5503C24.052 17.3274 23.7497 17.2015 23.434 17.2Z" fill="black"/>
<path opacity="0.2" d="M22.783 17.8501H15.512V34.1001H22.783C23.0987 34.0985 23.401 33.9726 23.6245 33.7497C23.848 33.5268 23.9746 33.2248 23.977 32.9091V19.0411C23.9746 18.7254 23.848 18.4234 23.6245 18.2005C23.401 17.9776 23.0987 17.8517 22.783 17.8501Z" fill="black"/>
<path opacity="0.2" d="M22.783 17.8501H15.512V32.8001H22.783C23.0987 32.7985 23.401 32.6726 23.6245 32.4497C23.848 32.2268 23.9746 31.9248 23.977 31.6091V19.0411C23.9746 18.7254 23.848 18.4234 23.6245 18.2005C23.401 17.9776 23.0987 17.8517 22.783 17.8501Z" fill="black"/>
<path opacity="0.2" d="M22.132 17.8501H15.512V32.8001H22.132C22.4477 32.7985 22.75 32.6726 22.9735 32.4497C23.197 32.2268 23.3236 31.9248 23.326 31.6091V19.0411C23.3236 18.7254 23.197 18.4234 22.9735 18.2005C22.75 17.9776 22.4477 17.8517 22.132 17.8501Z" fill="black"/>
<path d="M10.194 17.8501H22.132C22.4482 17.8498 22.7516 17.9751 22.9755 18.1985C23.1994 18.4218 23.3255 18.7249 23.326 19.0411V30.9591C23.3255 31.2753 23.1994 31.5784 22.9755 31.8017C22.7516 32.0251 22.4482 32.1504 22.132 32.1501H10.194C10.0374 32.1504 9.88224 32.1198 9.73746 32.06C9.59267 32.0003 9.46108 31.9126 9.35019 31.802C9.2393 31.6914 9.1513 31.56 9.09121 31.4154C9.03113 31.2708 9.00013 31.1157 9 30.9591V19.0411C9.00013 18.8845 9.03113 18.7294 9.09121 18.5848C9.1513 18.4402 9.2393 18.3088 9.35019 18.1982C9.46108 18.0876 9.59267 17.9999 9.73746 17.9402C9.88224 17.8804 10.0374 17.8498 10.194 17.8501Z" fill="url(#paint0_linear_183_1746)"/>
<path d="M12.7 28.873L15.211 24.989L12.911 21.127H14.758L16.013 23.6C16.129 23.834 16.213 24.008 16.251 24.124H16.268C16.35 23.936 16.437 23.755 16.528 23.578L17.87 21.131H19.57L17.211 24.971L19.63 28.876H17.821L16.371 26.165C16.3037 26.0484 16.2465 25.9263 16.2 25.8H16.176C16.1337 25.923 16.0774 26.0408 16.008 26.151L14.515 28.873H12.7Z" fill="white"/>
<path d="M35.806 12H26.581V18.5H37V13.191C36.9999 13.0344 36.9689 12.8793 36.9088 12.7347C36.8487 12.5901 36.7607 12.4587 36.6498 12.3481C36.5389 12.2375 36.4073 12.1498 36.2625 12.0901C36.1178 12.0303 35.9626 11.9997 35.806 12Z" fill="#33C481"/>
<path d="M26.581 25H37V31.5H26.581V25Z" fill="#107C41"/>
<defs>
<linearGradient id="paint0_linear_183_1746" x1="11.494" y1="16.9141" x2="20.832" y2="33.0861" gradientUnits="userSpaceOnUse">
<stop stop-color="#18884F"/>
<stop offset="0.5" stop-color="#117E43"/>
<stop offset="1" stop-color="#0B6631"/>
</linearGradient>
</defs>
</svg>
