<svg width="588" height="588" viewBox="0 0 588 588" fill="none" xmlns="http://www.w3.org/2000/svg">
<circle cx="294" cy="294" r="293.649" fill="#E9E9E9" stroke="black" stroke-width="0.701299"/>
<path d="M228.516 359L180.625 407.375C175.304 412.213 168.209 415.438 160.469 415.438C152.985 415.438 145.807 412.464 140.515 407.172C135.223 401.88 132.25 394.703 132.25 387.219V383.188L148.375 264.185C150.001 246.055 158.346 229.187 171.772 216.895C185.198 204.602 202.734 197.774 220.938 197.75H366.062C404.117 197.75 435.239 226.936 438.625 264.185L454.75 383.188V387.219C454.75 394.703 451.777 401.88 446.485 407.172C441.193 412.464 434.015 415.438 426.531 415.438C418.791 415.438 411.696 412.213 406.375 407.375L358.484 359H228.516ZM212.875 230V262.25H180.625V278.375H212.875V310.625H229V278.375H261.25V262.25H229V230H212.875ZM366.062 230C362.855 230 359.779 231.274 357.511 233.542C355.243 235.81 353.969 238.886 353.969 242.094C353.969 245.301 355.243 248.377 357.511 250.645C359.779 252.913 362.855 254.188 366.062 254.188C369.27 254.188 372.346 252.913 374.614 250.645C376.882 248.377 378.156 245.301 378.156 242.094C378.156 238.886 376.882 235.81 374.614 233.542C372.346 231.274 369.27 230 366.062 230ZM337.844 258.219C334.636 258.219 331.56 259.493 329.292 261.761C327.024 264.029 325.75 267.105 325.75 270.312C325.75 273.52 327.024 276.596 329.292 278.864C331.56 281.132 334.636 282.406 337.844 282.406C341.051 282.406 344.127 281.132 346.395 278.864C348.663 276.596 349.938 273.52 349.938 270.312C349.938 267.105 348.663 264.029 346.395 261.761C344.127 259.493 341.051 258.219 337.844 258.219ZM394.281 258.219C391.074 258.219 387.998 259.493 385.73 261.761C383.462 264.029 382.188 267.105 382.188 270.312C382.188 273.52 383.462 276.596 385.73 278.864C387.998 281.132 391.074 282.406 394.281 282.406C397.489 282.406 400.565 281.132 402.833 278.864C405.101 276.596 406.375 273.52 406.375 270.312C406.375 267.105 405.101 264.029 402.833 261.761C400.565 259.493 397.489 258.219 394.281 258.219ZM366.062 286.438C362.855 286.438 359.779 287.712 357.511 289.98C355.243 292.248 353.969 295.324 353.969 298.531C353.969 301.739 355.243 304.815 357.511 307.083C359.779 309.351 362.855 310.625 366.062 310.625C369.27 310.625 372.346 309.351 374.614 307.083C376.882 304.815 378.156 301.739 378.156 298.531C378.156 295.324 376.882 292.248 374.614 289.98C372.346 287.712 369.27 286.438 366.062 286.438Z" fill="#0F198A"/>
</svg>
